<?xml version="1.0" encoding="utf-8"?><svg xmlns="http://www.w3.org/2000/svg" xmlns:xlink="http://www.w3.org/1999/xlink"><defs><svg fill="none" viewBox="0 0 24 24" id="1c"><path fill="#222" d="M2.127 17.56a.75.75 0 001.5 0h-1.5zm-.845-9.698a.75.75 0 000 1.5v-1.5zm3.293 9.698a.75.75 0 001.5 0h-1.5zM2.981 5.688a.75.75 0 100 1.5v-1.5zm11.684 6.105a.75.75 0 101.487-.19l-1.488.19zm8.053 3.319a.75.75 0 100-1.5v1.5zm-4.894-3.828a.75.75 0 001.484-.22l-1.484.22zm4.846 7.028a.75.75 0 000-1.5v1.5zm-20.543-8.4v7.648h1.5V9.912h-1.5zm-.845-.55h.295v-1.5h-.295v1.5zm2.345.55a2.05 2.05 0 00-2.05-2.05v1.5a.55.55 0 01.55.55h1.5zm.948-2.174v9.822h1.5V7.738h-1.5zm-1.594-.55h1.044v-1.5H2.981v1.5zm3.094.55a2.05 2.05 0 00-2.05-2.05v1.5a.55.55 0 01.55.55h1.5zm6.992 5.873a1.61 1.61 0 01-1.61-1.61h-1.5a3.11 3.11 0 003.11 3.11v-1.5zm-1.61-1.61c0-.89.72-1.61 1.61-1.61v-1.5A3.11 3.11 0 009.957 12h1.5zm1.61-1.61c.819 0 1.496.611 1.598 1.402l1.487-.19a3.111 3.111 0 00-3.085-2.713v1.5zm0 4.72h9.651v-1.5h-9.651v1.5zm-.001 1.701a4.811 4.811 0 01-4.811-4.811h-1.5a6.311 6.311 0 006.31 6.311v-1.5zm-4.811-4.811a4.811 4.811 0 014.81-4.811v-1.5A6.311 6.311 0 006.756 12h1.5zm4.81-4.811a4.813 4.813 0 014.76 4.094l1.483-.22a6.313 6.313 0 00-6.242-5.374v1.5zm0 11.122h9.605v-1.5h-9.604v1.5z"/></svg><svg fill="none" viewBox="0 0 24 24" id="alarm"><path stroke="#222" stroke-linecap="round" stroke-linejoin="round" stroke-width="1.5" d="M12 13.12V9.38M11.999 16.125a.25.25 0 10.002.5.25.25 0 00-.002-.5"/><path stroke="#222" stroke-linecap="round" stroke-linejoin="round" stroke-width="1.5" d="M14.029 4.14l7.659 13.403c.89 1.558-.235 3.497-2.029 3.497H4.341c-1.795 0-2.92-1.939-2.029-3.497L9.971 4.14c.897-1.57 3.161-1.57 4.058 0z" clip-rule="evenodd"/></svg><svg fill="none" viewBox="0 0 24 24" id="alert"><path stroke="#222" stroke-linecap="round" stroke-linejoin="round" stroke-width="1.5" d="M12 5.229v0A6.77 6.77 0 0118.771 12v0A6.77 6.77 0 0112 18.771v0A6.77 6.77 0 015.229 12v0A6.77 6.77 0 0112 5.229z" clip-rule="evenodd"/><path stroke="#222" stroke-linecap="round" stroke-linejoin="round" stroke-width="1.5" d="M12 12.376V8.615M11.999 15.047a.148.148 0 00-.149.15.15.15 0 10.149-.15M20.326 5.757a10.394 10.394 0 010 12.485M3.667 18.243a10.394 10.394 0 010-12.485"/></svg><svg fill="none" viewBox="0 0 24 24" id="angle-left"><path stroke="#222" stroke-linecap="round" stroke-linejoin="round" stroke-width="1.5" d="M16.495 3L7.5 12.027l9 8.973"/></svg><svg fill="none" viewBox="0 0 24 24" id="angle-right"><path stroke="#222" stroke-linecap="round" stroke-linejoin="round" stroke-width="1.5" d="M7.505 3l8.995 9.027L7.5 21"/></svg><svg fill="none" viewBox="0 0 24 24" id="angles-top-bottom"><path stroke="#222" stroke-linecap="round" stroke-linejoin="round" stroke-width="1.5" d="M15.5 8L12 4.5 8.5 8m0 8l3.5 3.5 3.5-3.5"/></svg><svg fill="none" viewBox="0 0 24 24" id="arrow-down-bottom-line"><path stroke="#222" stroke-linecap="round" stroke-linejoin="round" stroke-width="1.5" d="M12 17V3m8 18H4m13-9l-5.001 5.001-5-5.001"/></svg><svg fill="none" viewBox="0 0 24 24" id="arrow-down-in-square"><path stroke="#222" stroke-linecap="round" stroke-linejoin="round" stroke-width="1.5" d="M12 16l-3-3m3 3l3-3m-3 3V8.5M18 3H6a2 2 0 00-2 2v14a2 2 0 002 2h12a2 2 0 002-2V5a2 2 0 00-2-2z"/></svg><svg fill="none" viewBox="0 0 24 24" id="arrow-down-sm"><path stroke="#222" stroke-linecap="round" stroke-linejoin="round" stroke-width="1.5" d="M8 10l4 4 4-4"/></svg><svg fill="none" viewBox="0 0 24 24" id="arrow-geo"><path stroke="#222" stroke-linejoin="round" stroke-width="1.5" d="M20.458 3.42l-6.96 18.079-2.991-8.128-8.128-2.992 18.079-6.96z"/></svg><svg fill="none" viewBox="0 0 24 24" id="arrow-left"><path stroke="#222" stroke-linecap="round" stroke-linejoin="round" stroke-width="1.5" d="M11 7l-5 5m0 0l5 5m-5-5h12"/></svg><svg fill="none" viewBox="0 0 24 24" id="arrow-right"><path stroke="#222" stroke-linecap="round" stroke-linejoin="round" stroke-width="1.5" d="M14 17l5-5m0 0l-5-5m5 5H5"/></svg><svg fill="none" viewBox="0 0 24 24" id="arrow-right-bottom"><path stroke="#222" stroke-linecap="round" stroke-linejoin="round" stroke-width="1.5" d="M11 17h6m0 0v-6m0 6L7 7"/></svg><svg fill="none" viewBox="0 0 24 24" id="arrow-right-sm"><path stroke="#323232" stroke-linecap="round" stroke-linejoin="round" stroke-width="1.5" d="M11 16l4-4-4-4"/></svg><svg fill="none" viewBox="0 0 24 24" id="arrow-right-top"><path stroke="#fff" stroke-linecap="round" stroke-linejoin="round" stroke-width="1.5" d="M17 13V7m0 0h-6m6 0L7 17"/></svg><svg fill="none" viewBox="0 0 24 24" id="arrow-top-right-folder"><path fill="#222" d="M19 6.94v.75-.75zm-7.298-.438l.62-.421-.62.421zm-1.405-2.065l.62-.422-.62.422zm3.47 7.295h.75a.75.75 0 00-.75-.75v.75zm-4.065 3.005a.75.75 0 001.06 1.061l-1.06-1.06zm1.414-3.755a.75.75 0 000 1.5v-1.5zm1.902 3.402a.75.75 0 001.5 0h-1.5zM19 6.19h-6.471v1.5H19v-1.5zm-6.471 0a.25.25 0 01-.207-.11l-1.24.843c.325.48.868.767 1.447.767v-1.5zm-.207-.11l-1.405-2.065-1.24.844 1.405 2.065 1.24-.844zm-1.405-2.065A1.75 1.75 0 009.47 3.25v1.5c.082 0 .16.04.206.11l1.24-.845zM9.47 3.25H5v1.5h4.471v-1.5zM5 3.25A2.75 2.75 0 002.25 6h1.5c0-.69.56-1.25 1.25-1.25v-1.5zM2.25 6v12h1.5V6h-1.5zm0 12A2.75 2.75 0 005 20.75v-1.5c-.69 0-1.25-.56-1.25-1.25h-1.5zM5 20.75h14v-1.5H5v1.5zm14 0A2.75 2.75 0 0021.75 18h-1.5c0 .69-.56 1.25-1.25 1.25v1.5zM21.75 18V8.94h-1.5V18h1.5zm0-9.06A2.75 2.75 0 0019 6.19v1.5c.69 0 1.25.56 1.25 1.25h1.5zm-8.513 2.262l-3.535 3.535 1.06 1.061 3.536-3.535-1.06-1.061zm-2.12 1.28h2.65v-1.5h-2.65v1.5zm1.9-.75v2.652h1.5v-2.652h-1.5z"/></svg><svg fill="none" viewBox="0 0 24 24" id="arrows-circular"><path fill="#222" d="M12.06 5.47a.75.75 0 001.06 1.06l-1.06-1.06zM14.59 4l.53.53a.75.75 0 000-1.06l-.53.53zm-1.47-2.53a.75.75 0 10-1.06 1.06l1.06-1.06zm-1.18 17.06a.75.75 0 10-1.06-1.06l1.06 1.06zM9.41 20l-.53-.53a.75.75 0 000 1.06l.53-.53zm1.47 2.53a.75.75 0 101.06-1.06l-1.06 1.06zm7.326-16.687a.75.75 0 00-1.064 1.056l1.064-1.056zM9.95 18.95a.75.75 0 10-.422 1.44l.422-1.44zm-4.235-.867a.75.75 0 101.078-1.044l-1.078 1.044zM14.05 5.049a.75.75 0 00.422-1.44l-.422 1.44zm-.93 1.481l2-2-1.06-1.06-2 2 1.06 1.06zm2-3.06l-2-2-1.06 1.06 2 2 1.06-1.06zm-4.24 14l-2 2 1.06 1.06 2-2-1.06-1.06zm-2 3.06l2 2 1.06-1.06-2-2-1.06 1.06zM17.142 6.9A7.214 7.214 0 0119.25 12h1.5a8.714 8.714 0 00-2.544-6.157l-1.064 1.056zM19.25 12A7.25 7.25 0 0112 19.25v1.5A8.75 8.75 0 0020.75 12h-1.5zM12 19.25a7.25 7.25 0 01-2.05-.299l-.422 1.44c.782.23 1.61.359 2.472.359v-1.5zm-5.207-2.21A7.221 7.221 0 014.75 12h-1.5c0 2.365.942 4.51 2.465 6.084l1.078-1.044zM4.75 12A7.25 7.25 0 0112 4.75v-1.5A8.75 8.75 0 003.25 12h1.5zM12 4.75c.71 0 1.396.107 2.05.299l.422-1.44A8.75 8.75 0 0012 3.25v1.5z"/></svg><svg fill="none" viewBox="0 0 24 24" id="asterisk"><path stroke="#222" stroke-linecap="round" stroke-width="1.5" d="M12 20v-8m0 0V4m0 8l5.657 5.656M12 12L6.344 6.343M12 12l-5.657 5.656M12 12l5.657-5.657M12 12h8m-8 0H4"/></svg><svg fill="none" viewBox="0 0 16 16" id="atm"><path stroke="#222" stroke-linecap="round" stroke-linejoin="round" stroke-width="1.5" d="M15 15H1M7 11H6M3 15V2.474C3 1.66 3.64 1 4.429 1h7.142C12.361 1 13 1.66 13 2.474V15"/><path fill="#222" stroke="#222" stroke-linecap="round" stroke-linejoin="round" stroke-width="1.5" d="M9.882 4H6.118C6.053 4 6 4.074 6 4.166v2.668c0 .092.053.166.118.166h3.764c.065 0 .118-.074.118-.166V4.166C10 4.074 9.947 4 9.882 4z"/></svg><svg fill="none" viewBox="0 0 24 24" id="bank"><path stroke="#222" stroke-linecap="round" stroke-linejoin="round" stroke-width="1.5" d="M14.643 10v8M19 18v-8M5 10v8m4.357 0v-8M21 10H3V6.994L12.152 3 21 6.861V10zM3 21h18v-1l-1-2H4l-1 2v1z"/></svg><svg fill="none" viewBox="0 0 24 24" id="bank-shine"><path stroke="#222" stroke-linecap="round" stroke-linejoin="round" stroke-width="1.5" d="M8.999 16.002V11.42M12 16.002V11.42m3.001 4.582V11.42m-7.003 4.582h8.004M21.004 12v4.002a5.002 5.002 0 01-5.002 5.002H7.998a5.002 5.002 0 01-5.002-5.002V7.998a5.002 5.002 0 015.002-5.002h6.003M7.998 11.42h8.004V9.636L12 7.998 7.998 9.636v1.784zm12.005-3.422a3.001 3.001 0 013.002-3 3.001 3.001 0 01-3.002-3.002 3.001 3.001 0 01-3 3.001 3.001 3.001 0 013 3.001z"/></svg><svg fill="none" viewBox="0 0 24 24" id="beach"><path stroke="#222" stroke-linecap="round" stroke-linejoin="round" stroke-width="1.5" d="M12 9h8c0-3-4-6-8-6S4 6 4 9h8zm0 0v6M9 8.95c0-3.258 1.343-5.9 3-5.9s3 2.642 3 5.9M7.09 18L6 21m9.91-3L17 21M4.5 18h11.098a5 5 0 003-1l1.802-1.35a1.5 1.5 0 10-1.8-2.4l-1.802 1.35c-.346.26-.767.4-1.2.4H4.5a1.5 1.5 0 000 3z"/></svg><svg fill="none" viewBox="0 0 24 24" id="building"><path stroke="#222" stroke-linecap="round" stroke-linejoin="round" stroke-width="1.5" d="M21 21V4.287a1.286 1.286 0 00-1.737-1.2l-6.429 2.407c-.503.189-.835.67-.834 1.206V21 9.75M7.5 3v2.25M3 21V9.75c0-.621.504-1.125 1.125-1.125h6.75c.621 0 1.125.504 1.125 1.125m0 0s0 0 0 0zm-6.19 5.63h3.38M5.81 12h3.38M7.5 19.31V21M22 21H2M15 9.06V17m3-7.94V17M6.375 5.25h2.25c.621 0 1.125.504 1.125 1.125v2.25h-4.5v-2.25c0-.621.504-1.125 1.125-1.125z"/></svg><svg fill="none" viewBox="0 0 24 24" id="calculator"><rect width="14" height="18.5" x="5.334" y="2.75" stroke="#222" stroke-width="1.5" rx="1.875"/><path stroke="#222" stroke-width="1.5" d="M5.334 8h14"/><path stroke="#222" stroke-linecap="round" stroke-linejoin="round" stroke-width="1.5" d="M8.088 11.75c0-.003-.002-.005-.005-.005s-.005.002-.005.005.002.005.005.005.005-.002.005-.005M8.338 15c0-.003-.002-.005-.005-.005s-.005.002-.005.005.002.005.005.005.005-.002.005-.005M8.338 18c0-.003-.002-.005-.005-.005s-.005.002-.005.005.002.005.005.005.005-.002.005-.005M16.339 12c0-.003-.002-.005-.005-.005s-.005.002-.005.005.002.005.005.005.005-.002.005-.005M16.339 15c0-.003-.002-.005-.005-.005s-.005.002-.005.005.002.005.005.005.005-.002.005-.005M16.339 18c0-.003-.002-.005-.005-.005s-.005.002-.005.005.002.005.005.005.005-.002.005-.005M12.338 12c0-.003-.002-.005-.005-.005s-.005.002-.005.005.002.005.005.005.005-.002.005-.005M12.338 15c0-.003-.002-.005-.005-.005s-.005.002-.005.005.002.005.005.005.005-.002.005-.005M12.338 18c0-.003-.002-.005-.005-.005s-.005.002-.005.005.002.005.005.005.005-.002.005-.005"/></svg><svg fill="none" viewBox="0 0 24 24" id="car"><path stroke="#222" stroke-linecap="round" stroke-linejoin="round" stroke-width="1.5" d="M15.77 18H8.38m10.54-.01h1.23c.73-.01 1.36-.551 1.47-1.281l.33-2.19v-.01c.16-1.03-.49-2-1.49-2.26-1.5-.36-3.05-.52-4.59-.48-.9-.79-1.89-1.46-2.96-1.99a7.848 7.848 0 00-7.05-.01l-2.26 1.11v-.01c-.32.15-.65.28-.99.39v-.01c-.41.13-.69.51-.68.94v4.2h-.01c-.01.82.66 1.49 1.49 1.49h1.55M17.34 15.5a1.75 1.75 0 100 3.502 1.75 1.75 0 000-3.502zm-10.71 0a1.75 1.75 0 100 3.502 1.75 1.75 0 000-3.502z"/></svg><svg fill="none" viewBox="0 0 24 24" id="card"><path stroke="#222" stroke-linecap="round" stroke-linejoin="round" stroke-width="1.5" d="M3 9h18M9.57 13H7m11 6H6a3 3 0 01-3-3V8a3 3 0 013-3h12a3 3 0 013 3v8a3 3 0 01-3 3z"/></svg><svg fill="none" viewBox="0 0 24 24" id="card-checkmark"><path stroke="#323232" stroke-linecap="round" stroke-linejoin="round" stroke-width="1.5" d="M2.996 7.998h18.008M9.499 12H6.998M17.002 13a4.002 4.002 0 110 8.004 4.002 4.002 0 010-8.004"/><path stroke="#323232" stroke-linecap="round" stroke-linejoin="round" stroke-width="1.5" d="M18.559 16.225l-1.945 1.944-1.169-1.167M10 18.002H5.996a3.001 3.001 0 01-3-3V6.997a3.001 3.001 0 013-3.001h12.006a3.001 3.001 0 013 3V11"/></svg><svg fill="none" viewBox="0 0 24 24" id="card-in-hand"><path stroke="#323232" stroke-linecap="round" stroke-linejoin="round" stroke-width="1.5" d="M12.981 14H20.5a1.5 1.5 0 001.5-1.5v-6A1.5 1.5 0 0020.5 5h-10A1.5 1.5 0 009 6.5V13m0 0l2.19-2.19a1.646 1.646 0 012.533 2.077l-2.993 4.488a4 4 0 01-1.968 1.543L3 21m6-8H7m7.44-4.56a1.5 1.5 0 012.12 2.12M9 8H6.708a3 3 0 00-1.341.316l-.586.293a3 3 0 00-1.23 1.14L2 12.333"/></svg><svg fill="none" viewBox="0 0 24 24" id="card-lock"><path stroke="#222" stroke-linecap="round" stroke-linejoin="round" stroke-width="1.5" d="M2.035 10.864l9.928-2.66m-9.928 2.66l1.812 6.761a3 3 0 003.674 2.122l3.006-.806m-8.492-8.077l-.259-.966a3 3 0 012.122-3.674l11.59-3.106m-6.071 9.909l-2.483.665M15 11V8.857C15 7.28 16.343 6 18 6s3 1.28 3 2.857V11m-3 3v2m3.571 4H14.43c-.79 0-1.429-.732-1.429-1.636v-5.728c0-.904.64-1.636 1.429-1.636h7.142c.79 0 1.429.732 1.429 1.636v5.728c0 .904-.64 1.636-1.429 1.636z"/></svg><svg fill="none" viewBox="0 0 24 24" id="card-scissors"><path stroke="#222" stroke-linecap="round" stroke-linejoin="round" stroke-width="1.5" d="M4 5.714h8M10.205 9.43H7.778M18.167 15C19.732 15 21 13.753 21 12.214V4.786C21 3.247 19.732 2 18.167 2H6.833C5.268 2 4 3.247 4 4.786v7.428C4 13.753 5.268 15 6.833 15"/><path stroke="#222" stroke-width="1.5" d="M11 15v6m0 0a2 2 0 104 0 2 2 0 00-4 0zm-.634-6.137l-3.678 6.211m3.678-6.211c1.153.617 3.62 1.676 5.068-.834.675-1.168 1.17-2.065 2.147-3.756 1.04-1.803.143-3.5-1.739-4.736l-5.476 9.326zM7 20a2 2 0 10-4 0 2 2 0 004 0z"/></svg><svg fill="none" viewBox="0 0 24 24" id="cash"><path fill="#222" d="M20 5.75a.75.75 0 000-1.5v1.5zM.25 16a.75.75 0 001.5 0H.25zM6 8.75h15v-1.5H6v1.5zM22.25 10v7h1.5v-7h-1.5zM21 18.25H6v1.5h15v-1.5zM4.75 17v-7h-1.5v7h1.5zM6 18.25c-.69 0-1.25-.56-1.25-1.25h-1.5A2.75 2.75 0 006 19.75v-1.5zM22.25 17c0 .69-.56 1.25-1.25 1.25v1.5A2.75 2.75 0 0023.75 17h-1.5zM21 8.75c.69 0 1.25.56 1.25 1.25h1.5A2.75 2.75 0 0021 7.25v1.5zM6 7.25A2.75 2.75 0 003.25 10h1.5c0-.69.56-1.25 1.25-1.25v-1.5zm-2-1.5h16v-1.5H4v1.5zM1.75 16V8H.25v8h1.5zM4 4.25A3.75 3.75 0 00.25 8h1.5A2.25 2.25 0 014 5.75v-1.5zm11.25 9.25a1.75 1.75 0 01-1.75 1.75v1.5a3.25 3.25 0 003.25-3.25h-1.5zm-1.75 1.75a1.75 1.75 0 01-1.75-1.75h-1.5a3.25 3.25 0 003.25 3.25v-1.5zm-1.75-1.75c0-.966.784-1.75 1.75-1.75v-1.5a3.25 3.25 0 00-3.25 3.25h1.5zm1.75-1.75c.966 0 1.75.784 1.75 1.75h1.5a3.25 3.25 0 00-3.25-3.25v1.5z"/></svg><svg fill="none" viewBox="0 0 24 24" id="cash-deposit"><path stroke="#222" stroke-linecap="round" stroke-linejoin="round" stroke-width="1.5" d="M3 3.5h18m-16 0v15.639A1.36 1.36 0 006.361 20.5H17.64c.751 0 1.361-.609 1.361-1.361V3.5M12 16V7.5m0 0l-3 3m3-3l3 3"/></svg><svg fill="none" viewBox="0 0 24 24" id="checkmark"><path stroke="#222" stroke-linecap="round" stroke-linejoin="round" stroke-width="1.5" d="M17 9l-3.5 3.5L11 15l-3-3"/></svg><svg fill="none" viewBox="0 0 24 24" id="checkmark-circle"><path stroke="#222" stroke-linecap="round" stroke-linejoin="round" stroke-width="1.5" d="M19.561 7.444L12.005 15l-3.777-3.778"/><path stroke="#222" stroke-linecap="round" stroke-linejoin="round" stroke-width="1.5" d="M21 12a9 9 0 01-9 9 9 9 0 01-9-9 9 9 0 019-9c1.453 0 2.821.353 4.036.964"/></svg><svg fill="none" viewBox="0 0 24 24" id="checkmark-lg"><path stroke="#222" stroke-linecap="round" stroke-linejoin="round" stroke-width="1.5" d="M20 6.5l-11 11-5-5"/></svg><svg fill="none" viewBox="0 0 24 24" id="circle-of-users"><path stroke="#222" stroke-linecap="round" stroke-linejoin="round" stroke-width="1.5" d="M4.937 5.971A8.627 8.627 0 002.733 9.96M9.29 20.443a8.653 8.653 0 004.397-.188M2.734 14.041a8.627 8.627 0 002.204 3.988M19.405 14.464a8.64 8.64 0 01-2.212 3.678M17.193 5.858a8.65 8.65 0 012.212 3.678M9.29 3.557a8.653 8.653 0 014.397.188"/><path stroke="#222" stroke-linecap="round" stroke-linejoin="round" stroke-width="1.5" d="M21.534 10.232A2.5 2.5 0 1118 13.768a2.5 2.5 0 013.535-3.536M8.827 17.57a2.5 2.5 0 11-3.535 3.535 2.5 2.5 0 013.535-3.536M8.827 2.895a2.5 2.5 0 11-3.535 3.536 2.5 2.5 0 013.535-3.536"/></svg><svg fill="none" viewBox="0 0 24 24" id="click-on-pack"><path stroke="#222" stroke-linecap="round" stroke-linejoin="round" stroke-width="1.5" d="M10 21.004H5.997a2 2 0 01-2.001-2.001V8.623a2 2 0 012-2h11.005a2 2 0 012 2V9m1.716 11.72l-1.703-1.704m.036-6.634l-.541.556M15.716 11l.01.775m-3.345.606l.556.54M11 15.716l.776-.011m.605 3.346l.556-.541m2.064-12.638v.75H7.998v-.75a3.501 3.501 0 017.003 0zm5.623 11.07l-4.469-1.49a.556.556 0 00-.703.703l1.49 4.469a.556.556 0 001.003.11l.903-1.505c.094-.156.225-.287.381-.38l1.505-.904a.556.556 0 00-.11-1.003z"/></svg><svg fill="none" viewBox="0 0 24 24" id="clock"><path stroke="#222" stroke-linecap="round" stroke-linejoin="round" stroke-width="1.5" d="M11.718 7.985v4.651l3.656 2.229M8.557 3.687a8.998 8.998 0 0111.756 4.87 8.998 8.998 0 01-4.87 11.756A8.998 8.998 0 118.557 3.687z"/></svg><svg fill="none" viewBox="0 0 24 24" id="coins"><path stroke="#222" stroke-linecap="round" stroke-linejoin="round" stroke-width="1.5" d="M3.001 9c0 1.105 2.238 2 5 2M8 15c-2.761 0-4.999-.895-4.999-2m9.998-8L13 8m-.001-3c0 1.105-2.238 2-4.999 2-2.761 0-5-.895-5-2m9.999 0c0-1.105-2.238-2-4.999-2-2.761 0-5 .895-5 2m8.001 11c0 1.105 2.238 2 5 2s5-.895 5-2m-10-4c0 1.105 2.238 2 5 2s5-.895 5-2L21 20c0 1.105-2.237 2-4.999 2-2.762 0-5-.895-5-2v-8zm0 0c-.002-1.105 2.239-2 4.999-2s5 .895 4.998 2M8 19c-2.761 0-5-.895-5-2V5"/></svg><svg fill="none" viewBox="0 0 24 24" id="copy"><path stroke="#222" stroke-linecap="round" stroke-linejoin="round" stroke-width="1.5" d="M7.002 17.002H5a2 2 0 01-2.001-2V4.996a2 2 0 012-2h10.005a2 2 0 012 2v2M9.003 21.005h10.005a2 2 0 002-2V8.998a2 2 0 00-2-2H9.002a2 2 0 00-2 2v10.006a2 2 0 002 2z"/></svg><svg fill="none" viewBox="0 0 24 24" id="cross"><path stroke="#222" stroke-linecap="round" stroke-linejoin="round" stroke-width="1.5" d="M18 6L6 18m12 0L6 6"/></svg><svg fill="none" viewBox="0 0 24 24" id="cross-round"><path fill="#222" fill-opacity=".1" fill-rule="evenodd" d="M12.5 22c-5.523 0-10-4.477-10-10s4.477-10 10-10 10 4.477 10 10-4.477 10-10 10z" clip-rule="evenodd"/><path fill="#222" d="M10.03 8.47a.75.75 0 10-1.06 1.06l1.06-1.06zm4.94 7.06a.75.75 0 101.06-1.06l-1.06 1.06zm1.06-6a.75.75 0 00-1.06-1.06l1.06 1.06zm-7.06 4.94a.75.75 0 101.06 1.06l-1.06-1.06zm0-4.94l6 6 1.06-1.06-6-6-1.06 1.06zm6-1.06l-6 6 1.06 1.06 6-6-1.06-1.06z"/></svg><svg fill="none" viewBox="0 0 24 24" id="direction-pin-arrow"><path stroke="#222" stroke-linecap="round" stroke-linejoin="round" stroke-width="1.5" d="M6.499 5.25a.25.25 0 10.002.5.25.25 0 00-.002-.5"/><path stroke="#222" stroke-linecap="round" stroke-linejoin="round" stroke-width="1.5" d="M3 5.5v0A3.5 3.5 0 016.5 2v0A3.5 3.5 0 0110 5.5v0c0 1.639-1.788 3.389-2.808 4.254-.403.328-.98.328-1.383 0C4.788 8.89 3 7.14 3 5.5zM16 17.2a1 1 0 011.515-.857l3 1.8a1 1 0 010 1.715l-3 1.8A1 1 0 0116 20.8v-3.6z" clip-rule="evenodd"/><path fill="#222" d="M12.234 19.745a.75.75 0 000-1.5v1.5zm-3.607-.75l-.053.748a.715.715 0 00.053.002v-.75zM6 15.996l.749.046a.75.75 0 00.001-.046H6zm0-.003h.75l-.001-.046-.749.046zm2.627-2.999v-.75c-.018 0-.035 0-.053.002l.053.748zm6.745 0v.75c.018 0 .035 0 .053-.002l-.053-.748zm2.627-2.999l-.748-.047a.742.742 0 000 .093l.748-.046zm-2.629-3l.052-.748a.751.751 0 00-.054-.002l.002.75zm-2.372-.745a.75.75 0 10.004 1.5l-.004-1.5zm-.764 11.995H8.627v1.5h3.607v-1.5zm-3.554.002a2.082 2.082 0 01-1.931-2.205L5.25 15.95a3.582 3.582 0 003.323 3.793l.106-1.496zm-1.93-2.251v-.003h-1.5v.003h1.5zm-.001-.05a2.082 2.082 0 011.93-2.204l-.105-1.496a3.582 3.582 0 00-3.323 3.793l1.498-.092zm1.878-2.202h6.745v-1.5H8.627v1.5zm6.798-.002a3.582 3.582 0 003.323-3.793l-1.498.092a2.082 2.082 0 01-1.93 2.205l.105 1.496zm3.322-3.7a3.58 3.58 0 00-3.325-3.795l-.104 1.496a2.08 2.08 0 011.932 2.205l1.497.094zm-3.379-3.797l-2.37.005.004 1.5 2.37-.005-.004-1.5z"/></svg><svg fill="none" viewBox="0 0 24 24" id="doc-checked"><path stroke="#222" stroke-linecap="round" stroke-linejoin="round" stroke-width="1.5" d="M7 17h8m-.5-7.776L10.124 13.6 7.5 10.974m11.917-4.562l-2.83-2.83a2 2 0 00-1.414-.586H5.998a2 2 0 00-2 2.001v14.006a2 2 0 002 2h12.004a2 2 0 002-2V7.826a2 2 0 00-.585-1.414z"/></svg><svg fill="none" viewBox="0 0 24 24" id="document"><path stroke="#222" stroke-linecap="round" stroke-linejoin="round" stroke-width="1.5" d="M8 16h5M8 8h8m-8 4h8m2-9H6a2 2 0 00-2 2v14a2 2 0 002 2h12a2 2 0 002-2V5a2 2 0 00-2-2z"/></svg><svg fill="none" viewBox="0 0 24 24" id="door-arrow-left"><path stroke="#222" stroke-linecap="round" stroke-linejoin="round" stroke-width="1.5" d="M21 11h-6m0 0l2-2m-2 2l2 2m-6 6h4a2 2 0 002-2v-1m0-10V5a2 2 0 00-2-2H5m6 15.998V7.503c0-.69-.355-1.331-.94-1.696l-4-2.5C4.728 2.475 3 3.432 3 5.003v11.494c0 .69.355 1.331.94 1.696l4 2.5c1.332.833 3.06-.125 3.06-1.695z"/></svg><svg fill="none" viewBox="0 0 24 24" id="door-arrow-right"><path stroke="#222" stroke-linecap="round" stroke-linejoin="round" stroke-width="1.5" d="M15 11h6m0 0l-2 2m2-2l-2-2m-8 10h4a2 2 0 002-2v-1m0-10V5a2 2 0 00-2-2H5m6 16.392V7.503c0-.69-.355-1.331-.94-1.696l-4-2.5C4.728 2.475 3 3.432 3 5.003v11.888c0 .69.355 1.331.94 1.696l4 2.5c1.332.833 3.06-.125 3.06-1.695z"/></svg><svg fill="none" viewBox="0 0 24 24" id="excel-file"><path stroke="#222" stroke-linecap="round" stroke-linejoin="round" stroke-width="1.5" d="M6.998 6.998v-2a2 2 0 012-2.002h10.005a2 2 0 012 2.001v14.006a2 2 0 01-2 2H8.999a2 2 0 01-2.001-2v-2m7.003-2V8.997a2 2 0 00-2-2H5.997a2 2 0 00-2 2v6.004a2 2 0 002 2H12a2 2 0 002-2zm0 0L21.004 15m0-5.922H14m0-6.083v18.008m-3.435-7.253l-3-3.502m0 3.502l3-3.502"/></svg><svg fill="none" viewBox="0 0 24 24" id="expand-arrows"><path stroke="#222" stroke-linecap="round" stroke-linejoin="round" stroke-width="1.5" d="M7 11v6h6m4-4V7h-6"/></svg><svg fill="none" viewBox="0 0 24 24" id="external"><path stroke="#222" stroke-linecap="round" stroke-linejoin="round" stroke-width="1.5" d="M12 12l7.87-7.87M15 4h5v5M9.5 4H4v16h16v-5"/></svg><svg fill="none" viewBox="0 0 24 24" id="eye-left-top"><path fill="#222" fill-rule="evenodd" d="M9 15A5 5 0 109 5a5 5 0 000 10zm-.5-4a1.5 1.5 0 100-3 1.5 1.5 0 000 3z" clip-rule="evenodd"/><path fill="#222" d="M23 12l.692.29.12-.29-.12-.29L23 12zM1 12l-.692-.29-.12.29.12.29L1 12zm22 0a107.717 107.717 0 01-.692-.29l-.004.01-.021.047a10.153 10.153 0 01-.506.936c-.377.618-.96 1.444-1.78 2.268-1.634 1.642-4.202 3.279-7.997 3.279v1.5c4.28 0 7.212-1.863 9.06-3.721a13.92 13.92 0 001.997-2.545 11.65 11.65 0 00.59-1.094 4.59 4.59 0 00.04-.09l.003-.007.001-.002v-.001L23 12zm-11 6.25c-3.795 0-6.363-1.637-7.996-3.279a12.418 12.418 0 01-1.78-2.268 10.148 10.148 0 01-.507-.936 3.397 3.397 0 01-.021-.047l-.004-.01L1 12l-.692.29.002.003.002.007a2.844 2.844 0 00.04.09 11.666 11.666 0 00.59 1.094 13.92 13.92 0 001.998 2.545C4.788 17.887 7.72 19.75 12 19.75v-1.5zM1 12l.692.29.004-.01.021-.047a10.148 10.148 0 01.506-.936c.377-.618.96-1.444 1.78-2.268C5.638 7.387 8.206 5.75 12 5.75v-1.5c-4.28 0-7.212 1.863-9.06 3.721a13.92 13.92 0 00-1.997 2.545 11.666 11.666 0 00-.59 1.094 4.844 4.844 0 00-.04.09l-.003.007-.001.002v.001L1 12zm11-6.25c3.795 0 6.363 1.637 7.996 3.279.82.825 1.404 1.65 1.78 2.268a10.153 10.153 0 01.507.936l.021.047.004.01L23 12a67.91 67.91 0 00.691-.29v-.003l-.003-.007a2.132 2.132 0 00-.04-.09 11.65 11.65 0 00-.59-1.094A13.92 13.92 0 0021.06 7.97C19.212 6.113 16.28 4.25 12 4.25v1.5z"/></svg><svg fill="none" viewBox="0 0 24 24" id="eye-right-bottom"><path fill="#222" d="M23 12l.692.29.12-.29-.12-.29L23 12zM1 12l-.692-.29-.12.29.12.29L1 12zm22 0l-.692-.29-.004.01-.021.047a10.153 10.153 0 01-.506.936c-.377.618-.96 1.444-1.78 2.268-1.634 1.642-4.202 3.279-7.997 3.279v1.5c4.28 0 7.212-1.863 9.06-3.721a13.92 13.92 0 001.997-2.545 11.689 11.689 0 00.59-1.094l.032-.07.009-.02.002-.007.001-.002v-.001L23 12zm-11 6.25c-3.795 0-6.363-1.637-7.996-3.279a12.419 12.419 0 01-1.78-2.268 10.147 10.147 0 01-.507-.936 3.662 3.662 0 01-.021-.047l-.004-.01L1 12l-.692.29c0 .002.001.002.002.003l.002.007a2.8 2.8 0 00.04.09 11.666 11.666 0 00.59 1.094A13.92 13.92 0 002.94 16.03C4.788 17.887 7.72 19.75 12 19.75v-1.5zM1 12l.692.29.004-.01a3.662 3.662 0 01.116-.245c.088-.175.223-.43.411-.738.377-.618.96-1.444 1.78-2.268C5.638 7.387 8.206 5.75 12 5.75v-1.5c-4.28 0-7.212 1.863-9.06 3.721a13.92 13.92 0 00-1.997 2.545 11.666 11.666 0 00-.59 1.094 4.844 4.844 0 00-.04.09l-.003.007-.001.002v.001L1 12zm11-6.25c3.795 0 6.363 1.637 7.996 3.279.82.825 1.404 1.65 1.78 2.268a10.153 10.153 0 01.507.936l.021.047.004.01L23 12l.692-.29c0-.002-.001-.002-.002-.003l-.002-.007-.01-.02a7.708 7.708 0 00-.15-.316c-.103-.208-.259-.5-.47-.848A13.92 13.92 0 0021.06 7.97C19.212 6.113 16.28 4.25 12 4.25v1.5z"/><path fill="#222" fill-rule="evenodd" d="M15 19a5 5 0 100-10 5 5 0 000 10zm.5-3a1.5 1.5 0 100-3 1.5 1.5 0 000 3z" clip-rule="evenodd"/></svg><svg fill="none" viewBox="0 0 24 24" id="filter"><path stroke="#222" stroke-linecap="round" stroke-linejoin="round" stroke-width="1.5" d="M20 7H9M4 17h11M8.121 4.879A3 3 0 113.88 9.12 3 3 0 018.12 4.88zm12 10a3 3 0 11-4.242 4.242 3 3 0 014.242-4.242z"/></svg><svg fill="none" viewBox="0 0 24 24" id="flag"><path stroke="#222" stroke-linecap="round" stroke-linejoin="round" stroke-width="1.5" d="M4.002 21.004V4.546a7.965 7.965 0 017.186-.363l1.633.726a7.965 7.965 0 007.187-.363v11.956a7.965 7.965 0 01-7.186.363l-1.634-.726a7.965 7.965 0 00-7.186.363"/></svg><svg fill="none" viewBox="0 0 24 24" id="folder-user"><path stroke="#222" stroke-linecap="round" stroke-linejoin="round" stroke-width="1.5" d="M9 17v-.25c0-.966.784-1.75 1.75-1.75h2.5c.966 0 1.75.784 1.75 1.75V17m4-10.06h-6.471a1 1 0 01-.827-.438l-1.405-2.065A1 1 0 009.471 4H5a2 2 0 00-2 2v12a2 2 0 002 2h14a2 2 0 002-2V8.94a2 2 0 00-2-2zm-5.6 5.185a1.375 1.375 0 11-2.75 0 1.375 1.375 0 012.75 0z"/></svg><svg fill="none" viewBox="0 0 24 24" id="from-user-arrow"><path stroke="#222" stroke-linecap="round" stroke-linejoin="round" stroke-width="1.5" d="M4.55 19.9c0-2.5 2-4.4 4.4-4.4h3.1m3.5 0h6m0 0l-3 3m3-3l-3-3m-4-7.2c1.6 1.6 1.6 4.3 0 5.9-1.6 1.6-4.3 1.6-5.9 0-1.6-1.6-1.6-4.3 0-5.9 1.6-1.6 4.2-1.6 5.9 0z"/></svg><svg fill="none" viewBox="0 0 24 24" id="gear"><path stroke="#222" stroke-linecap="round" stroke-linejoin="round" stroke-width="1.5" d="M13.91 10.09a2.7 2.7 0 11-3.82 3.82 2.7 2.7 0 013.82-3.82z" clip-rule="evenodd"/><path stroke="#222" stroke-linecap="round" stroke-linejoin="round" stroke-width="1.5" d="M5.25 12c0 .297.027.594.063.882l-1.588 1.242a.898.898 0 00-.224 1.156l1.412 2.443a.898.898 0 001.112.384l1.422-.571a.912.912 0 01.846.099c.22.146.448.28.684.4.27.137.466.382.509.682l.217 1.513c.063.442.442.77.888.77h2.817a.897.897 0 00.888-.77l.217-1.512a.918.918 0 01.512-.683c.235-.118.462-.251.681-.396a.915.915 0 01.85-.102l1.419.57a.899.899 0 001.112-.384l1.412-2.443a.898.898 0 00-.224-1.156l-1.588-1.242c.036-.288.063-.585.063-.882 0-.297-.027-.594-.063-.882l1.588-1.242a.898.898 0 00.224-1.156l-1.412-2.443a.898.898 0 00-1.112-.384l-1.419.57a.918.918 0 01-.85-.102 6.597 6.597 0 00-.681-.396.918.918 0 01-.512-.683l-.216-1.512a.897.897 0 00-.888-.77h-2.817a.897.897 0 00-.888.77l-.218 1.514a.92.92 0 01-.509.682c-.236.12-.464.255-.684.4a.917.917 0 01-.847.098l-1.421-.571a.898.898 0 00-1.112.384L3.501 8.72a.898.898 0 00.224 1.156l1.588 1.242A7.138 7.138 0 005.25 12z" clip-rule="evenodd"/></svg><svg fill="none" viewBox="0 0 36 36" id="hexagon"><path stroke="#222" stroke-linecap="round" stroke-linejoin="round" stroke-width="1" d="M4.5 21.479v-7.143a6.751 6.751 0 013.354-5.834l6.75-3.929a6.752 6.752 0 016.79 0l6.75 3.929a6.75 6.75 0 013.356 5.833v7.143a6.751 6.751 0 01-3.354 5.834l-6.75 3.928a6.752 6.752 0 01-6.79 0l-6.75-3.928A6.75 6.75 0 014.5 21.478v0z"/></svg><svg fill="none" viewBox="0 0 32 32" id="info"><path stroke="#222" stroke-linecap="round" stroke-linejoin="round" stroke-opacity=".25" stroke-width="1.5" d="M14.667 20.667h3.08m-1.535 0V15h-1.533M28 16c0 6.627-5.373 12-12 12S4 22.627 4 16 9.373 4 16 4s12 5.373 12 12z"/><circle cx="15.8" cy="11" r="1.1" fill="#222" fill-opacity=".25"/></svg><svg fill="none" viewBox="0 0 24 24" id="key"><path stroke="#222" stroke-linecap="round" stroke-linejoin="round" stroke-width="1.5" d="M15.031 9.342a.374.374 0 10-.75.002.375.375 0 00.75-.001"/><path stroke="#222" stroke-linecap="round" stroke-linejoin="round" stroke-width="1.5" d="M12.528 14.949l-1.09 1.092h-1.94v1.556H7.947v1.944L6.492 21H3v-3.5l6.06-6.073a6.2 6.2 0 011.387-6.612 6.172 6.172 0 018.742 0 6.207 6.207 0 010 8.763 6.173 6.173 0 01-6.661 1.37z" clip-rule="evenodd"/></svg><svg fill="none" viewBox="0 0 32 32" id="loader"><circle cx="16.238" cy="15.761" r="14.238" stroke="var(--loader-stroke-cl)" stroke-width="2" opacity=".2"/><mask id="cimask0" width="15" height="16" x="16" y="0" mask-type="alpha" maskUnits="userSpaceOnUse"><path fill="#C4C4C4" d="M16.238.17L17.5 0 26 3l4.5 6-14.262 6.762V.17z"/></mask><g mask="url(#cimask0)"><circle cx="16.238" cy="15.761" r="14.238" stroke="var(--loader-stroke-cl)" stroke-width="2"/></g></svg><svg fill="none" viewBox="0 0 24 24" id="lock"><path stroke="#323232" stroke-linecap="round" stroke-linejoin="round" stroke-width="1.5" d="M8 10V7a4 4 0 018 0v3m-4 4v3m5 4H7a2 2 0 01-2-2v-7a2 2 0 012-2h10a2 2 0 012 2v7a2 2 0 01-2 2z"/></svg><svg fill="none" viewBox="0 0 24 24" id="mail"><path stroke="#222" stroke-linecap="round" stroke-linejoin="round" stroke-width="1.5" d="M5.997 7.997a3.001 3.001 0 00-3 3v8.004a3.001 3.001 0 003 3.002h12.007a3 3 0 003-3v-8.005a3.001 3.001 0 00-3.002-3.001M21 11.028l-7.46 5.457c-.94.687-2.102.687-3.04 0L3 11m3 2V5a2 2 0 012-2h7l3 3v7M9 8h6m-6 3h4"/><path fill="#222" fill-rule="evenodd" d="M18 6h-2.4a.6.6 0 01-.6-.6V3" clip-rule="evenodd"/><path stroke="#222" stroke-linecap="round" stroke-linejoin="round" stroke-width="1.5" d="M18 6h-2.4a.6.6 0 01-.6-.6V3"/></svg><svg fill="none" viewBox="0 0 24 24" id="minus"><path stroke="#222" stroke-linecap="round" stroke-width="1.5" d="M7 12h10"/></svg><svg fill="none" viewBox="0 0 24 24" id="number-1"><circle cx="12" cy="12" r="9" stroke="#222" stroke-width="1.5"/><path stroke="#222" stroke-linecap="round" stroke-linejoin="round" stroke-width="1.5" d="M11.958 14.5V8.353l-1.546 1.398M10.54 14.647h2.837"/></svg><svg fill="none" viewBox="0 0 24 24" id="number-2"><circle cx="12" cy="12" r="9" stroke="#222" stroke-width="1.5"/><path stroke="#222" stroke-linecap="round" stroke-linejoin="round" stroke-width="1.5" d="M10.501 10.242c0-.962.784-1.742 1.75-1.742S14 9.28 14 10.242c0 2.177-3.5 2.177-3.5 4.758H14"/></svg><svg fill="none" viewBox="0 0 24 24" id="number-3"><circle cx="12" cy="12" r="9" stroke="#222" stroke-width="1.5"/><path stroke="#222" stroke-linecap="round" stroke-linejoin="round" stroke-width="1.5" d="M10.2 9.748c.208-.733.903-1.243 1.7-1.248.994 0 1.8.768 1.8 1.715v0c0 .848-.722 1.535-1.612 1.535.89 0 1.611.687 1.611 1.535 0 .947-.805 1.715-1.799 1.715v0c-.797-.005-1.492-.515-1.7-1.248"/></svg><svg fill="none" viewBox="0 0 24 24" id="number-4"><circle cx="12" cy="12" r="9" stroke="#222" stroke-width="1.5"/><path stroke="#222" stroke-linecap="round" stroke-linejoin="round" stroke-width="1.5" d="M12.998 15v-1.483H14 10.163c-.508 0-.829-.539-.573-.973.709-1.201 1.53-2.561 2.281-3.76.323-.515 1.127-.283 1.127.322v4.411"/></svg><svg fill="none" viewBox="0 0 24 24" id="page"><path stroke="#222" stroke-linecap="round" stroke-linejoin="round" stroke-width="1.5" d="M4 11.5h16m-16 5h15M4 21h9M4 5.001V3C4 2.447 4.447 2 4.999 2H7c.552 0 .999.447.999.999V5A.998.998 0 017.001 6H5A.998.998 0 014 5.001z"/></svg><svg fill="none" viewBox="0 0 24 24" id="password"><rect width="20" height="12" x="2" y="6" stroke="#222" stroke-width="1.5" rx="2"/><path stroke="#222" stroke-linecap="round" stroke-linejoin="round" stroke-width="1.5" d="M7.177 11.823a.25.25 0 11-.354.354.25.25 0 01.354-.354M12.18 11.823a.25.25 0 11-.355.354.25.25 0 01.354-.354M17.181 11.825a.25.25 0 11-.353.353.25.25 0 01.353-.353"/></svg><svg fill="none" viewBox="0 0 24 24" id="pdf"><path stroke="#222" stroke-linecap="round" stroke-linejoin="round" stroke-width="1.5" d="M9.51 15.324h4.979m.87-1.32l-2.264-3.54m-4.456 3.54l2.265-3.54m-.655-.838V7.874c0-.483.391-.874.874-.874h1.752c.483 0 .875.391.875.874v1.752a.874.874 0 01-.875.875h-1.752a.876.876 0 01-.874-.875zM6 16.624v-1.751c0-.483.391-.875.874-.875h1.752c.483 0 .875.392.875.875v1.751a.874.874 0 01-.875.875H6.874A.874.874 0 016 16.624zm8.5 0v-1.751c0-.483.39-.875.874-.875h1.752c.482 0 .874.392.874.875v1.751a.877.877 0 01-.876.875h-1.752a.874.874 0 01-.873-.875z"/></svg><svg fill="none" viewBox="0 0 24 24" id="pdf-file"><path stroke="#222" stroke-linecap="round" stroke-linejoin="round" stroke-width="1.5" d="M19 8h-4a1 1 0 01-1-1V3m-3.66 13.55h3.32m.58-.88l-1.51-2.36m-2.97 2.36l1.51-2.36m7.144-6.896l-2.828-2.828A2 2 0 0014.172 3H7a2 2 0 00-2 2v14a2 2 0 002 2h10a2 2 0 002-2V7.828a2 2 0 00-.586-1.414zm-7.581 6.337v-1.168c0-.322.261-.583.583-.583h1.168c.322 0 .583.261.583.583v1.168a.583.583 0 01-.583.583h-1.168a.584.584 0 01-.583-.583zM8 17.417v-1.168c0-.322.261-.583.583-.583h1.168c.322 0 .583.261.583.583v1.168a.583.583 0 01-.583.583H8.583A.583.583 0 018 17.417zm5.667 0v-1.168c0-.322.261-.583.583-.583h1.168c.322 0 .583.261.583.583v1.168a.584.584 0 01-.584.583h-1.168a.583.583 0 01-.582-.583z"/></svg><svg fill="none" viewBox="0 0 24 24" id="pen"><path stroke="#222" stroke-linecap="round" stroke-linejoin="round" stroke-width="1.5" d="M13.75 7.16l3.09 3.09M5.293 15.619L15.619 5.293a1 1 0 011.413 0l1.676 1.676a1 1 0 010 1.413L8.381 18.707a.995.995 0 01-.706.293H5v-2.675c0-.265.105-.519.293-.706z"/></svg><svg fill="none" viewBox="0 0 24 24" id="pen-on-doc"><path stroke="#222" stroke-linecap="round" stroke-linejoin="round" stroke-width="1.5" d="M8.999 21.004H4.997a2 2 0 01-2-2.001V4.997a2 2 0 012-2h12.005a2 2 0 012 2v3.001"/><path stroke="#222" stroke-linecap="round" stroke-linejoin="round" stroke-width="1.5" d="M12 21.004l2.625-.324a.836.836 0 00.488-.238l6.36-6.361a1.8 1.8 0 00.007-2.546l-.006-.005a1.8 1.8 0 00-2.546-.006v.006l-6.303 6.302a.826.826 0 00-.236.473L12 21.004zM7.998 17.002a1.5 1.5 0 110-3.001 1.5 1.5 0 010 3.001z" clip-rule="evenodd"/><path stroke="#222" stroke-linecap="round" stroke-linejoin="round" stroke-width="1.5" d="M6.498 6.998H14.5M6.498 10.5h4.001"/></svg><svg fill="none" viewBox="0 0 24 24" id="percent"><path stroke="#222" stroke-linecap="round" stroke-width="1.5" d="M6 18L18 6m1 10.5a2.5 2.5 0 11-5 0 2.5 2.5 0 015 0zm-9-9a2.5 2.5 0 11-5 0 2.5 2.5 0 015 0z"/></svg><svg fill="none" viewBox="0 0 24 24" id="phone"><path stroke="#222" stroke-linecap="round" stroke-linejoin="round" stroke-width="1.5" d="M10.856 13.144a12.634 12.634 0 01-2.638-3.809.749.749 0 01.166-.827l.819-.818c.671-.671.671-1.62.085-2.206L8.114 4.31a2 2 0 00-2.828 0l-.652.652c-.741.741-1.05 1.81-.85 2.87.494 2.613 2.012 5.474 4.461 7.923 2.449 2.449 5.31 3.967 7.923 4.461 1.06.2 2.129-.109 2.87-.85l.651-.651a2 2 0 000-2.828l-1.173-1.173a1.5 1.5 0 00-2.121 0l-.903.904a.749.749 0 01-.827.166 12.66 12.66 0 01-3.809-2.64z" clip-rule="evenodd"/></svg><svg fill="none" viewBox="0 0 24 24" id="plus"><path stroke="#222" stroke-linecap="round" stroke-width="1.5" d="M12 17v-5m0 0V7m0 5H7m5 0h5"/></svg><svg fill="none" viewBox="0 0 24 24" id="plus-brackets"><path fill="#222" d="M18.574 19.253a.75.75 0 000 1.5v-1.5zm2.287-6.11l-.53-.53a.75.75 0 00-.22.53h.75zM22.004 12l.53.53a.75.75 0 000-1.06l-.53.53zm-1.143-1.143h-.75c0 .199.079.39.22.53l.53-.53zm-2.287-7.61a.75.75 0 000 1.5v-1.5zm0 17.506a3.037 3.037 0 003.037-3.037h-1.5c0 .85-.689 1.537-1.537 1.537v1.5zm3.037-3.037v-4.572h-1.5v4.572h1.5zm-.22-4.042l1.144-1.144-1.061-1.06-1.144 1.143 1.061 1.06zm1.144-2.204l-1.144-1.144-1.06 1.06 1.143 1.144 1.06-1.06zm-.924-.613V6.284h-1.5v4.573h1.5zm0-4.573a3.036 3.036 0 00-3.037-3.037v1.5c.849 0 1.537.687 1.537 1.537h1.5z"/><path stroke="#222" stroke-linecap="round" stroke-linejoin="round" stroke-width="1.5" d="M14.501 12H9.499M12 14.501V9.499"/><path fill="#222" d="M5.426 4.747a.75.75 0 000-1.5v1.5zm-2.287 6.11l.53.53a.75.75 0 00.22-.53h-.75zM1.996 12l-.53-.53a.75.75 0 000 1.06l.53-.53zm1.143 1.144h.75a.75.75 0 00-.22-.53l-.53.53zm2.287 7.61a.75.75 0 000-1.5v1.5zm0-17.507A3.036 3.036 0 002.39 6.284h1.5c0-.85.688-1.537 1.537-1.537v-1.5zM2.39 6.284v4.573h1.5V6.284h-1.5zm.22 4.042L1.465 11.47l1.061 1.06 1.144-1.143-1.061-1.06zM1.465 12.53l1.144 1.144 1.06-1.06-1.143-1.144-1.06 1.06zm.924.614v4.572h1.5v-4.572h-1.5zm0 4.572a3.036 3.036 0 003.037 3.037v-1.5c-.85 0-1.537-.687-1.537-1.537h-1.5z"/></svg><svg fill="none" viewBox="0 0 24 24" id="plus-in-circle"><path stroke="#222" stroke-linecap="round" stroke-width="1.5" d="M12.263 7v5.263m0 0V17m0-4.737H17m-4.737 0H7M22 12c0 5.523-4.477 10-10 10S2 17.523 2 12 6.477 2 12 2s10 4.477 10 10z"/></svg><svg fill="none" viewBox="0 0 24 24" id="present"><path stroke="#222" stroke-linecap="round" stroke-linejoin="round" stroke-width="1.5" d="M12 21V8m7 4v8a1 1 0 01-1 1H6a1 1 0 01-1-1v-8m15-4H4a1 1 0 00-1 1v2a1 1 0 001 1h16a1 1 0 001-1V9a1 1 0 00-1-1zm-4.304-1.388C14.618 7.734 12.921 8 12.099 8c0 0-.494-3.117.721-4.38a1.979 1.979 0 012.876 0 2.177 2.177 0 010 2.992zm-7.392 0C9.382 7.734 11.079 8 11.901 8c0 0 .494-3.117-.721-4.38a1.979 1.979 0 00-2.876 0 2.177 2.177 0 000 2.992z"/></svg><svg fill="none" viewBox="0 0 24 24" id="printer"><path fill="#222" d="M16.064 8a.75.75 0 001.5 0h-1.5zM6.436 8a.75.75 0 001.5 0h-1.5zM17 10.25a.75.75 0 000 1.5v-1.5zm1 1.5a.75.75 0 000-1.5v1.5zm-11 6a.75.75 0 000-1.5v1.5zm10-1.5a.75.75 0 000 1.5v-1.5zM7 14v-.75a.75.75 0 00-.75.75H7zm10 0h.75a.75.75 0 00-.75-.75V14zm.564-6V4h-1.5v4h1.5zm0-4a1.75 1.75 0 00-1.75-1.75v1.5a.25.25 0 01.25.25h1.5zm-1.75-1.75H8.186v1.5h7.628v-1.5zm-7.628 0A1.75 1.75 0 006.436 4h1.5a.25.25 0 01.25-.25v-1.5zM6.436 4v4h1.5V4h-1.5zM17 11.75h1v-1.5h-1v1.5zm-10 4.5H4v1.5h3v-1.5zm-3 0a.25.25 0 01-.25-.25h-1.5c0 .966.784 1.75 1.75 1.75v-1.5zM3.75 16V9h-1.5v7h1.5zm0-7A.25.25 0 014 8.75v-1.5A1.75 1.75 0 002.25 9h1.5zM4 8.75h16v-1.5H4v1.5zm16 0a.25.25 0 01.25.25h1.5A1.75 1.75 0 0020 7.25v1.5zm.25.25v7h1.5V9h-1.5zm0 7a.25.25 0 01-.25.25v1.5A1.75 1.75 0 0021.75 16h-1.5zm-.25.25h-3v1.5h3v-1.5zm-4 4H8v1.5h8v-1.5zm-8 0a.25.25 0 01-.25-.25h-1.5c0 .966.784 1.75 1.75 1.75v-1.5zM7.75 20v-6h-1.5v6h1.5zM7 14.75h10v-1.5H7v1.5zm9.25-.75v6h1.5v-6h-1.5zm0 6a.25.25 0 01-.25.25v1.5A1.75 1.75 0 0017.75 20h-1.5z"/></svg><svg fill="none" viewBox="0 0 24 24" id="profile"><path stroke="#222" stroke-linecap="round" stroke-linejoin="round" stroke-width="1.5" d="M15 9.5h4m-1.6 4H15m-2.905 3a3.173 3.173 0 00-2.949-2H7.854a3.173 3.173 0 00-2.949 2m5.186-8.341a2.25 2.25 0 11-3.182 3.182 2.25 2.25 0 013.182-3.182zM2 18.5V5.541C2 4.414 2.914 3.5 4.041 3.5H20a2 2 0 012 2v13a2 2 0 01-2 2H4a2 2 0 01-2-2z"/></svg><svg fill="none" viewBox="0 0 24 24" id="prohibition"><path stroke="#222" stroke-linecap="round" stroke-linejoin="round" stroke-width="1.5" d="M18.364 5.636L5.636 18.364 18.364 5.636zM12 3v0a9 9 0 00-9 9v0a9 9 0 009 9v0a9 9 0 009-9v0a9 9 0 00-9-9z" clip-rule="evenodd"/></svg><svg fill="none" viewBox="0 0 24 24" id="qr"><path stroke="#222" stroke-linecap="round" stroke-linejoin="round" stroke-width="1.5" d="M14 16v-2m3.8 3.8h-2m5.7-9.822V4.5a2 2 0 00-2-2h-3.478M16.3 14h1.5M7.978 2.5H4.5a2 2 0 00-2 2v3.478m0 8.044V19.5a2 2 0 002 2h3.478m8.044 0H19.5a2 2 0 002-2v-3.478M6.196 6.196H10V10H6.196V6.196zM6.12 14.12H10V18H6.12v-3.88zm11.76-4.24H14V6h3.88v3.88z"/></svg><svg fill="none" viewBox="0 0 24 24" id="requisites-arrow-in"><path stroke="#222" stroke-linecap="round" stroke-linejoin="round" stroke-width="1.5" d="M7 11h5m0 9h7a2 2 0 002-2V5a2 2 0 00-2-2H5a2 2 0 00-2 2v8m4-6h10m-9.172 9.172L4 20m3.828-3.828H5m2.828 0V19"/></svg><svg fill="none" viewBox="0 0 24 24" id="rocket"><path stroke="#222" stroke-linecap="round" stroke-linejoin="round" stroke-width="1.5" d="M12.94 11.06l-7.07 7.07M6.633 13L3.17 12.18a.5.5 0 01-.239-.84l2.754-2.754a1 1 0 01.699-.293l3.105-.027M13.4 4.714a22.415 22.415 0 015.886 5.886M11 17.367l.818 3.463a.5.5 0 00.84.24l2.754-2.755a1 1 0 00.293-.699l.027-3.105m4.147-5.536l.808-3.888a1.5 1.5 0 00-1.774-1.774l-3.888.808a5.993 5.993 0 00-3.021 1.632l-3.19 3.19a8.006 8.006 0 00-2.259 4.497l-.011.073a3.476 3.476 0 003.943 3.942l.073-.01a8 8 0 004.498-2.26l3.189-3.189a5.993 5.993 0 001.632-3.02z"/></svg><svg fill="none" viewBox="0 0 24 24" id="rotate-ccw"><path stroke="#222" stroke-linecap="round" stroke-linejoin="round" stroke-width="1.5" d="M5 13a7 7 0 107-7H5m0 0l3-3M5 6l3 3"/></svg><svg fill="none" viewBox="0 0 24 24" id="safe"><path stroke="#222" stroke-linecap="round" stroke-linejoin="round" stroke-width="1.5" d="M19 10h-2m2 4h-2m3 8H4a2 2 0 01-2-2V4a2 2 0 012-2h16a2 2 0 012 2v16a2 2 0 01-2 2zm-2-3H6a1 1 0 01-1-1V6a1 1 0 011-1h12a1 1 0 011 1v12a1 1 0 01-1 1zm-6.586-8.414a2 2 0 11-2.828 2.828 2 2 0 012.828-2.828z"/></svg><svg fill="none" viewBox="0 0 25 24" id="search"><path stroke="#222" stroke-linecap="round" stroke-linejoin="round" stroke-width="1.5" d="M20.003 20.003l-3.951-3.951m2.069-4.993a7.062 7.062 0 11-14.124 0 7.062 7.062 0 0114.124 0z"/></svg><svg fill="none" viewBox="0 0 24 24" id="shop"><path stroke="#222" stroke-linecap="round" stroke-linejoin="round" stroke-width="1.5" d="M4.22 10.89v10m15.56-10v10m-5.558-.001v-4.444a2.222 2.222 0 00-4.444 0v4.444M2 20.89h20M4.301 10.889c-1.698-.012-2.805-1.693-2.069-3.142L3.947 4.37c.391-.77 1.213-1.259 2.115-1.259h11.876c.902 0 1.724.489 2.115 1.259l1.716 3.377c.736 1.449-.371 3.13-2.069 3.142-1.417 0-2.566-.968-2.566-2.163v-.048c0 1.221-1.149 2.211-2.566 2.211-1.417 0-2.566-.99-2.566-2.211 0 1.221-1.149 2.211-2.566 2.211-1.417 0-2.566-.99-2.566-2.211v.048c-.003 1.195-1.152 2.163-2.569 2.163z"/></svg><svg fill="none" viewBox="0 0 24 24" id="sparcles"><path stroke="#222" stroke-linecap="round" stroke-linejoin="round" stroke-width="1.5" d="M15.502 14.501v3.001m1.5-1.5h-3.001M7.498 14v2m1-1h-2m6.186-6.451L12 6.498l-.684 2.052a2.002 2.002 0 01-1.266 1.265l-2.052.684 2.052.685c.597.199 1.067.668 1.266 1.265L12 14.501l.684-2.052c.2-.597.669-1.066 1.266-1.265l2.052-.685-2.052-.684a1.997 1.997 0 01-1.266-1.265zm4.318 12.454H6.998a4.002 4.002 0 01-4.002-4.002V6.998a4.002 4.002 0 014.002-4.002h10.004a4.002 4.002 0 014.002 4.002v10.004a4.002 4.002 0 01-4.002 4.002z"/></svg><svg fill="none" viewBox="0 0 24 24" id="stamp-on-doc"><path stroke="#222" stroke-linecap="round" stroke-linejoin="round" stroke-width="1.5" d="M18 8V5a2 2 0 00-2-2H5a2 2 0 00-2 2v14a2 2 0 002 2h3"/><path stroke="#222" stroke-linecap="round" stroke-linejoin="round" stroke-width="1.5" d="M7.5 17a1.5 1.5 0 11.001-3.001A1.5 1.5 0 017.5 17zM21 19.586v-.865a1 1 0 00-.684-.949L18 17v-2l.697-.446A1.387 1.387 0 0017.949 12h-2.898a1.386 1.386 0 00-.748 2.554L15 15v2l-2.316.772a1 1 0 00-.684.949v.865c0 .265.105.52.293.707l.414.414a1 1 0 00.707.293h6.172c.265 0 .52-.105.707-.293l.414-.414a1 1 0 00.293-.707z" clip-rule="evenodd"/><path stroke="#222" stroke-linecap="round" stroke-linejoin="round" stroke-width="1.5" d="M6 7h8M6 10.5h4"/></svg><svg fill="none" viewBox="0 0 24 24" id="suitcase"><path stroke="#222" stroke-linecap="round" stroke-linejoin="round" stroke-width="1.5" d="M7.998 6.998V4.997a2 2 0 012.001-2h4.002a2 2 0 012 2v2M21 9c0 2.761-1.567 5-3.5 5h-11C4.567 14 3 11.76 3 9m14.002 12.004H6.998a4.002 4.002 0 01-4.002-4.002V8.999a2 2 0 012.001-2.001h14.006a2 2 0 012 2v8.004a4.002 4.002 0 01-4 4.002z"/></svg><svg fill="none" viewBox="0 0 24 24" id="swapped-squares"><path stroke="#222" stroke-linecap="round" stroke-linejoin="round" stroke-width="1.5" d="M18 7l2 2m0 0l2-2m-2 2V6a3 3 0 00-3-3h-2M6 17l-2-2m0 0l-2 2m2-2v3a3 3 0 003 3h2M4 10.5h4a2 2 0 002-2v-4a2 2 0 00-2-2H4a2 2 0 00-2 2v4a2 2 0 002 2zm11.5 11h4a2 2 0 002-2v-4a2 2 0 00-2-2h-4a2 2 0 00-2 2v4a2 2 0 002 2z"/></svg><svg fill="none" viewBox="0 0 24 24" id="target"><path stroke="#222" stroke-linecap="round" stroke-linejoin="round" stroke-width="1.5" d="M14.04 9.96l-2.51 2.51M11 3.975A8.52 8.52 0 1020.026 13m-3.816 0A4.725 4.725 0 1111 7.79M14 6v4h4l4-4-2.667-1.333L18 2l-4 4z"/></svg><svg fill="none" viewBox="0 0 24 24" id="telegram"><path stroke="#222" stroke-linecap="round" stroke-linejoin="round" stroke-width="1.5" d="M11.795 16.906L9.73 18.915a.666.666 0 01-1.102-.284l-1.376-4.53m6.852-3.174l-3.917 3.535a.843.843 0 00.066 1.305l5.378 3.973a.904.904 0 001.422-.54l2.641-12.447a.775.775 0 00-1.037-.884L3.142 11.853a.516.516 0 00.032.975L7.25 14.1"/></svg><svg fill="none" viewBox="0 0 24 24" id="to-user-arrow"><path stroke="#222" stroke-linecap="round" stroke-linejoin="round" stroke-width="1.5" d="M4.55 19.9c0-2.5 2-4.4 4.4-4.4h3.1m8.95 0h-6m0 0l3 3m-3-3l3-3m-3.45-7.2c1.6 1.6 1.6 4.3 0 5.9-1.6 1.6-4.3 1.6-5.9 0-1.6-1.6-1.6-4.3 0-5.9 1.6-1.6 4.2-1.6 5.9 0z"/></svg><svg fill="none" viewBox="0 0 24 24" id="trash-bin"><path stroke="#222" stroke-linecap="round" stroke-linejoin="round" stroke-width="1.5" d="M20.003 6.373H3.997m11.546 14.63H8.457a2.25 2.25 0 01-2.244-2.078L5.247 6.373h13.506l-.966 12.552a2.25 2.25 0 01-2.244 2.079zM9.186 2.997h5.628c.621 0 1.125.504 1.125 1.126v2.25H8.061v-2.25a1.125 1.125 0 011.125-1.126z"/></svg><svg fill="none" viewBox="0 0 24 24" id="two-users"><path stroke="#222" stroke-linecap="round" stroke-linejoin="round" stroke-width="1.5" d="M3 18a4 4 0 014-4h4a4 4 0 014 4m1-13.349a2.5 2.5 0 110 5M17 13a4 4 0 014 4M11.405 4.996a3.401 3.401 0 11-4.81 4.81 3.401 3.401 0 014.81-4.81z"/></svg><svg fill="none" viewBox="0 0 24 24" id="user-arrow-left"><path stroke="#222" stroke-linecap="round" stroke-linejoin="round" stroke-width="1.5" d="M7.003 20.008a4.449 4.449 0 014.449-4.448h5.108a4.449 4.449 0 014.449 4.448M7.003 12.005H2m0 0l2-2m-2 2l2 2m14.257-5.752a4.252 4.252 0 11-8.504 0 4.252 4.252 0 018.504 0z"/></svg><svg fill="none" viewBox="0 0 24 24" id="user-arrow-right"><path stroke="#222" stroke-linecap="round" stroke-linejoin="round" stroke-width="1.5" d="M7 20c0-2.5 2-4.4 4.4-4.4h5.1c2.5 0 4.4 2 4.4 4.4M2 12h5m0 0l-2 2m2-2l-2-2m12-4.6c1.6 1.6 1.6 4.3 0 5.9-1.6 1.6-4.3 1.6-5.9 0-1.6-1.6-1.6-4.3 0-5.9 1.6-1.6 4.2-1.6 5.9 0z"/></svg><svg fill="none" viewBox="0 0 24 24" id="user-in-hexagon"><path stroke="#222" stroke-linecap="round" stroke-linejoin="round" stroke-width="1.5" d="M16.002 16.501a2.107 2.107 0 00-.529-.77 2.109 2.109 0 00-1.434-.563H9.962A2.112 2.112 0 007.998 16.5M3 14.881v-4.763A4.5 4.5 0 015.236 6.23l4.5-2.619a4.501 4.501 0 014.527 0l4.5 2.62A4.5 4.5 0 0121 10.117v4.762a4.5 4.5 0 01-2.236 3.89l-4.5 2.619a4.501 4.501 0 01-4.527 0l-4.5-2.62A4.5 4.5 0 013 14.882zm11.25-4.132a2.25 2.25 0 11-4.5 0 2.25 2.25 0 014.5 0z"/></svg><svg fill="none" viewBox="0 0 24 24" id="video"><path stroke="#222" stroke-linecap="round" stroke-linejoin="round" stroke-width="1.5" d="M16.5 10.686l3.023-3.668a.958.958 0 01.669-.268h1.363c.522 0 .945.412.945.919v8.662a.933.933 0 01-.945.919h-1.363a.966.966 0 01-.67-.268L16.5 13.314M14.284 19.5H4.466c-1.224 0-2.217-.94-2.217-2.1V6.6c0-1.16.993-2.1 2.217-2.1h9.817c1.223 0 2.216.94 2.216 2.1v10.802c0 1.16-.993 2.098-2.216 2.098z"/><circle cx="7.5" cy="9.75" r="2.25" fill="#222"/></svg><svg fill="none" viewBox="0 0 24 24" id="wallet"><path stroke="#222" stroke-linecap="round" stroke-linejoin="round" stroke-width="1.5" d="M17 7V6a2 2 0 00-2-2H5.5A2.5 2.5 0 003 6.5v12A2.5 2.5 0 005.5 21h13a2.5 2.5 0 002.5-2.5V9a2 2 0 00-2-2H3m14 7h-2"/></svg><svg fill="none" viewBox="0 0 24 24" id="web"><path stroke="#222" stroke-linecap="round" stroke-linejoin="round" stroke-width="1.5" d="M2 8h20M4.774 5.495c0 .003.002.005.005.005s.005-.002.005-.005m2.533 0c0-.003.002-.005.005-.005s.005.002.005.005m2.529 0c0 .003.002.005.005.005s.005-.002.005-.005M16 14.5c0 2.214-1.786 4-4 4s-4-1.786-4-4m8 0c0-2.214-1.786-4-4-4s-4 1.786-4 4m8 0H8M20 21H4a2 2 0 01-2-2V5a2 2 0 012-2h16a2 2 0 012 2v14a2 2 0 01-2 2zm-8-2.544c2.074-2.19 2.074-5.721 0-7.911-2.074 2.189-2.074 5.721 0 7.911z"/></svg><svg fill="none" viewBox="0 0 24 24" id="xml-code"><path stroke="#323232" stroke-linecap="round" stroke-linejoin="round" stroke-width="1.5" d="M8.999 14l-2.001-2 2-2M15.001 10l2.001 2-2 2"/><rect width="18.008" height="18.008" x="2.996" y="2.996" stroke="#323232" stroke-linecap="round" stroke-linejoin="round" stroke-width="1.5" rx="5"/><path stroke="#323232" stroke-linecap="round" stroke-linejoin="round" stroke-width="1.5" d="M12.776 8.999L11.11 15"/></svg></defs></svg>